<svg width="50" height="50" viewBox="0 0 50 50" fill="none" xmlns="http://www.w3.org/2000/svg">
<path fill-rule="evenodd" clip-rule="evenodd" d="M25 3.84615C13.3171 3.84615 3.84615 13.3171 3.84615 25C3.84615 36.6828 13.3171 46.1538 25 46.1538C36.6828 46.1538 46.1538 36.6828 46.1538 25C46.1538 13.3171 36.6828 3.84615 25 3.84615ZM0 25C0 11.1929 11.1929 0 25 0C38.8072 0 50 11.1929 50 25C50 38.8072 38.8072 50 25 50C11.1929 50 0 38.8072 0 25ZM25 23.0769C26.0621 23.0769 26.9231 23.938 26.9231 25V33.9744C26.9231 35.0364 26.0621 35.8974 25 35.8974C23.938 35.8974 23.0769 35.0364 23.0769 33.9744V25C23.0769 23.938 23.938 23.0769 25 23.0769ZM25 14.7436C23.5838 14.7436 22.4359 15.8916 22.4359 17.3077C22.4359 18.7238 23.5838 19.8718 25 19.8718H25.0256C26.4418 19.8718 27.5897 18.7238 27.5897 17.3077C27.5897 15.8916 26.4418 14.7436 25.0256 14.7436H25Z" fill="#3C6F46"/>
</svg>
