<svg width="55" height="55" viewBox="0 0 55 55" fill="none" xmlns="http://www.w3.org/2000/svg">
<path d="M33.4003 7.69665L35.7173 5.37945C39.5565 1.54018 45.7813 1.54018 49.6206 5.37945C53.4598 9.21869 53.4598 15.4434 49.6206 19.2826L47.3033 21.5998M33.4003 7.69665C33.4003 7.69665 33.6898 12.6207 38.0345 16.9654C42.3793 21.3101 47.3033 21.5998 47.3033 21.5998M33.4003 7.69665L27.5 13.5968M47.3033 21.5998L34.1518 34.7515L26.4033 42.4999L26.0003 42.9029C24.5573 44.3457 23.836 45.0672 23.0405 45.6877C22.1021 46.4197 21.0867 47.0472 20.0125 47.5592C19.1018 47.9932 18.1338 48.3157 16.198 48.9609L7.99481 51.6954M7.99481 51.6954L5.9896 52.3639C5.03695 52.6814 3.98665 52.4334 3.27657 51.7234C2.5665 51.0132 2.31857 49.9629 2.63612 49.0104L3.30452 47.0052M7.99481 51.6954L3.30452 47.0052M3.30452 47.0052L6.0389 38.8019C6.6842 36.8662 7.00683 35.8982 7.44085 34.9875C7.95286 33.9132 8.58033 32.898 9.31226 31.9595C9.93271 31.164 10.6542 30.4427 12.0971 28.9997L18.75 22.3468" stroke="#700005" stroke-width="5" stroke-linecap="round"/>
</svg>
